# xmcd
#
# Track frame offsets: 
#        150
#        15100
#        25725
#        39640
#        55867
#        72542
#        85805
#        100175
#        112912
#        128370
#        141882
#        155197
#        169172
#        180580
#        192062
#        208190
#        221292
#        237492
#        251487
#        264112
#        276300
#        293757
#
# Disc length: 4135 seconds
#
# Revision: 2
# Processed by: cddbd v1.5.1PL0 Copyright (c) Steve Scherf et al.
# Submitted via: ExactAudioCopy v0.95b2
#
DISCID=31102516
DTITLE=Barbara Mandrell - 22 Legendary Hits
DYEAR=1900
DGENRE=Country
TTITLE0=Angel In Your Arms
TTITLE1=Sleeping Single In A Double Bed
TTITLE2=(If Loving You Is Wong) I Don't Want To Be Right
TTITLE3=Fast Lanes And Country Roads
TTITLE4=The Best Of Strangers
TTITLE5=Married But Not To Each Other
TTITLE6=No One Mends A Broken Heart Like You
TTITLE7=Wish You Were Here
TTITLE8=Woman To Woman
TTITLE9=Tonight
TTITLE10=In Times Like These
TTITLE11=It Should Have Been Love By Now (With Lee Greenwood)
TTITLE12=Happy Birthday Dear Heartache
TTITLE13=Crackers
TTITLE14=Operator, Long Distance Please
TTITLE15='Till You're Gone
TTITLE16=Crossword Puzzle
TTITLE17=Standing Room Only
TTITLE18=One Of A Kind Pair Of Fools
TTITLE19=That's What Friends Are For
TTITLE20=Years
TTITLE21=I Was Country When Country Wasn't Cool (With George Jones)
EXTD=
EXTT0=
EXTT1=
EXTT2=
EXTT3=
EXTT4=
EXTT5=
EXTT6=
EXTT7=
EXTT8=
EXTT9=
EXTT10=
EXTT11=
EXTT12=
EXTT13=
EXTT14=
EXTT15=
EXTT16=
EXTT17=
EXTT18=
EXTT19=
EXTT20=
EXTT21=
PLAYORDER=
